<svg id="Icon_feather-target" data-name="Icon feather-target" xmlns="http://www.w3.org/2000/svg" width="33" height="33" viewBox="0 0 33 33">
  <path id="Path_1713" data-name="Path 1713" d="M18,1.5a16.5,16.5,0,0,1,6.423,31.7A16.5,16.5,0,0,1,11.577,2.8,16.4,16.4,0,0,1,18,1.5Zm0,30a13.5,13.5,0,1,0-9.546-3.954A13.412,13.412,0,0,0,18,31.5Z" transform="translate(-1.5 -1.5)"/>
  <path id="Path_1714" data-name="Path 1714" d="M18,7.5A10.5,10.5,0,1,1,7.5,18,10.512,10.512,0,0,1,18,7.5Zm0,18A7.5,7.5,0,1,0,10.5,18,7.509,7.509,0,0,0,18,25.5Z" transform="translate(-1.5 -1.5)"/>
  <path id="Path_1715" data-name="Path 1715" d="M18,13.5A4.5,4.5,0,1,1,13.5,18,4.505,4.505,0,0,1,18,13.5Zm0,6A1.5,1.5,0,1,0,16.5,18,1.5,1.5,0,0,0,18,19.5Z" transform="translate(-1.5 -1.5)"/>
</svg>
