<svg xmlns="http://www.w3.org/2000/svg" width="28.125" height="34.877" viewBox="0 0 28.125 34.877">
  <path id="Icon_awesome-nutritionix" data-name="Icon awesome-nutritionix" d="M6.188.57S15.567-.007,14.7,7.91c0,0,1.343-5.266,7.242-2.855,0,0-1.245,5.2-6.187,3.938,0,0,1.027-3.839,4.648-3.98,0,0-2.805-.724-5.773,3.431,0,0-1.392-6.645-6.581-7.01A7.788,7.788,0,0,1,13.5,8.993C13.5,9,6.019,9.485,6.187.57ZM28.125,22.76a18.115,18.115,0,0,1-2.25,9.3c-2.967,2.173-7.383,3.375-11.812,3.375s-8.845-1.2-11.812-3.375A18.115,18.115,0,0,1,0,22.76,18.327,18.327,0,0,1,2.813,13.5a18.846,18.846,0,0,1,11.25-3.417A18.783,18.783,0,0,1,25.313,13.5a18.328,18.328,0,0,1,2.813,9.26ZM8.438,30.094a1.969,1.969,0,1,0-1.969,1.969A1.966,1.966,0,0,0,8.438,30.094Zm0-4.655a1.969,1.969,0,1,0-1.969,1.969A1.966,1.966,0,0,0,8.438,25.439Zm0-4.655a1.969,1.969,0,1,0-1.969,1.969A1.966,1.966,0,0,0,8.438,20.784ZM13.5,30.094a1.969,1.969,0,1,0-1.969,1.969A1.966,1.966,0,0,0,13.5,30.094Zm0-4.655a1.969,1.969,0,1,0-1.969,1.969A1.966,1.966,0,0,0,13.5,25.439Zm0-4.655a1.969,1.969,0,1,0-1.969,1.969A1.966,1.966,0,0,0,13.5,20.784Zm5.063,9.309a1.969,1.969,0,1,0-1.969,1.969A1.966,1.966,0,0,0,18.563,30.094Zm0-4.655a1.969,1.969,0,1,0-1.969,1.969A1.966,1.966,0,0,0,18.563,25.439Zm0-4.655a1.969,1.969,0,1,0-1.969,1.969A1.966,1.966,0,0,0,18.563,20.784Zm5.063,9.309a1.969,1.969,0,1,0-1.969,1.969A1.966,1.966,0,0,0,23.625,30.094Zm0-4.655a1.969,1.969,0,1,0-1.969,1.969A1.966,1.966,0,0,0,23.625,25.439Zm0-4.655a1.969,1.969,0,1,0-1.969,1.969A1.966,1.966,0,0,0,23.625,20.784ZM25.313,18a17.586,17.586,0,0,0-1.125-3.937,22.792,22.792,0,0,0-10.125-2.25,22.792,22.792,0,0,0-10.125,2.25A17.487,17.487,0,0,0,2.813,18a62.537,62.537,0,0,1,11.25-1.041A62.537,62.537,0,0,1,25.313,18Z" transform="translate(0 -0.56)"/>
</svg>
