<svg xmlns="http://www.w3.org/2000/svg" width="76.838" height="81.281" viewBox="0 0 76.838 81.281">
    <path id="Icon_awesome-arrow-circle-right" data-name="Icon awesome-arrow-circle-right" d="M38.981.563C60.2.563,77.4,18.752,77.4,41.2s-17.2,40.64-38.419,40.64S.563,63.653.563,41.2,17.758.563,38.981.563ZM34.5,24.095,46.2,35.959H17.913A3.821,3.821,0,0,0,14.2,39.892v2.622a3.821,3.821,0,0,0,3.718,3.933H46.2L34.5,58.311a4.1,4.1,0,0,0-.062,5.621l1.7,1.786a3.562,3.562,0,0,0,5.252,0L61.955,43.989a4.078,4.078,0,0,0,0-5.555L41.4,16.671a3.562,3.562,0,0,0-5.252,0l-1.7,1.786a4.119,4.119,0,0,0,.062,5.637Z" transform="translate(-0.563 -0.563)" fill="#fff"/>
  </svg>
  