<?xml version="1.0" encoding="utf-8"?>
<!-- Generator: Adobe Illustrator 24.3.0, SVG Export Plug-In . SVG Version: 6.00 Build 0)  -->
<svg version="1.1" id="Camada_1" xmlns:svgjs="http://svgjs.com/svgjs"
	 xmlns="http://www.w3.org/2000/svg" xmlns:xlink="http://www.w3.org/1999/xlink" x="0px" y="0px" viewBox="0 0 512 512"
	 style="enable-background:new 0 0 512 512;" xml:space="preserve">
<style type="text/css">
	.st0{fill:#001657;}
</style>
<g transform="matrix(-1,1.2246467991473532e-16,-1.2246467991473532e-16,-1,512,512)">
	<g>
		<g>
			<path class="st0" d="M256,0C114.8,0,0,114.8,0,256s114.8,256,256,256s256-114.8,256-256S397.2,0,256,0z M335.1,271.1L228.4,377.7
				c-4.2,4.2-9.6,6.3-15.1,6.3c-5.5,0-10.9-2.1-15.1-6.3c-8.3-8.3-8.3-21.8,0-30.2l91.6-91.6l-91.6-91.6c-8.3-8.3-8.3-21.8,0-30.2
				s21.8-8.3,30.2,0l106.7,106.7C343.4,249.3,343.4,262.7,335.1,271.1z"/>
		</g>
	</g>
</g>
</svg>
