<svg xmlns="http://www.w3.org/2000/svg" width="110" height="110" viewBox="0 0 110 110">
    <circle id="Elipse_683" data-name="Elipse 683" cx="55" cy="55" r="55" fill="#0d1a2e"/>
    <path id="Icon_map-gym" data-name="Icon map-gym" d="M21.336,57.166a1.813,1.813,0,0,1,0,2.17l-2.806,2.893c-.5.486-.938-.2-1.4-.723L1.7,44.148a1.813,1.813,0,0,1,0-2.17L4.5,39.808c.5-.487.938-.523,1.4,0ZM41.677,23.9a1.813,1.813,0,0,1,0,2.17L24.843,42.7a1.652,1.652,0,0,1-2.1,0l-4.208-5.063c-.463-.526-.5-.957,0-1.446L36.066,19.558c.24-.234.374-.012.7,0s.479-.251.7,0ZM27.649,52.1c.463.522-.2.959-.7,1.446l-2.1,2.893a1.65,1.65,0,0,1-2.1,0L7.308,38.362a.906.906,0,0,1,0-1.446l2.806-2.893c.5-.486.938-.523,1.4,0ZM53.6,24.621a1.813,1.813,0,0,1,0,2.17L50.8,28.96a1.652,1.652,0,0,1-2.1,0L33.26,11.6a1.811,1.811,0,0,1,0-2.17l2.806-2.17c.24-.234.374-.736.7-.723s.479.472.7.723Zm5.611-5.063c.462.527.5.956,0,1.446L56.407,23.9c-.239.234-.374.012-.7,0s-.478.251-.7,0L38.872,5.817a.906.906,0,0,1,0-1.446l2.806-2.893c.239-.234.374-.012.7,0s1.18-.251,1.4,0Z" transform="translate(24.546 23.119)" fill="#274e8b"/>
  </svg>
  