<svg xmlns="http://www.w3.org/2000/svg" width="110" height="110" viewBox="0 0 110 110">
    <circle id="Elipse_684" data-name="Elipse 684" cx="55" cy="55" r="55" fill="#112112" />
    <path id="Icon_awesome-apple-alt" data-name="Icon awesome-apple-alt" d="M42.389,14.575a11.911,11.911,0,0,1,7.837,4.578,22.04,22.04,0,0,1,3.919,9.155,26.69,26.69,0,0,1,0,9.809A28.053,28.053,0,0,1,48.267,51.2,15.973,15.973,0,0,1,35.2,57.736a10.066,10.066,0,0,1-4.572-.654,6.461,6.461,0,0,0-3.266-1.308,8.885,8.885,0,0,0-3.919,1.308,7.558,7.558,0,0,1-3.919.654A15.973,15.973,0,0,1,6.468,51.2,28.053,28.053,0,0,1,.59,38.117a26.69,26.69,0,0,1,0-9.809c.645-3.549,1.488-6.814,3.266-9.155a11.911,11.911,0,0,1,7.837-4.578,20.209,20.209,0,0,1,7.837.654,38.736,38.736,0,0,1,7.837,3.27,32.326,32.326,0,0,1,7.184-3.27A20.211,20.211,0,0,1,42.389,14.575ZM35.858,10a10.771,10.771,0,0,1-4.572,1.962,12.832,12.832,0,0,1-3.919.654H25.408a15.909,15.909,0,0,1,0-3.924c.324-2.719,1.078-4.45,2.612-5.885A10.771,10.771,0,0,1,32.592.842,17.5,17.5,0,0,1,37.164.188H38.47l.653,1.962a12.208,12.208,0,0,1-.653,3.924A8.867,8.867,0,0,1,35.858,10Z" transform="translate(27.633 26.036)" fill="#325c35" />
</svg>
  