<svg xmlns="http://www.w3.org/2000/svg" width="83.393" height="88.007" viewBox="0 0 83.393 88.007">
    <path id="Icon_awesome-apple-alt" data-name="Icon awesome-apple-alt" d="M64.832,22.188a18.243,18.243,0,0,1,12,7,33.681,33.681,0,0,1,6,14,40.762,40.762,0,0,1,0,15,42.872,42.872,0,0,1-9,20c-5.32,6.7-11.96,10-20,10-1.98,0-4.648.155-7-1-1.609-.923-3.02-2-5-2a13.616,13.616,0,0,0-6,2c-2.352,1.155-4.02,1-6,1-8.04,0-14.68-3.3-20-10a42.872,42.872,0,0,1-9-20,40.762,40.762,0,0,1,0-15c.988-5.427,2.279-10.42,5-14a18.243,18.243,0,0,1,12-7c2.969-.462,6.8-.27,12,1a59.353,59.353,0,0,1,12,5c3.093-1.616,6.547-3.845,11-5C58.03,21.919,61.864,21.726,64.832,22.188Zm-10-7c-1.731,1.5-4.156,2.307-7,3a19.671,19.671,0,0,1-6,1h-3a24.3,24.3,0,0,1,0-6c.5-4.157,1.65-6.805,4-9,1.731-1.5,4.156-2.307,7-3a26.82,26.82,0,0,1,7-1h2l1,3a18.647,18.647,0,0,1-1,6A13.558,13.558,0,0,1,54.832,15.188Z" transform="translate(-0.135 -0.188)" fill="#325c35" />
</svg>
  