<svg xmlns="http://www.w3.org/2000/svg" width="50" height="50" viewBox="0 0 50 50">
  <path id="Icon_awesome-hands-helping" data-name="Icon awesome-hands-helping" d="M38.125,18.751H26.25V24.22c0,3.877-2.523,7.032-5.625,7.032S15,28.1,15,24.22V12.344L9.93,16.153A6.681,6.681,0,0,0,7.5,21.505v4.62L1.25,30.637A3.572,3.572,0,0,0,.336,34.9l6.25,13.536A2.251,2.251,0,0,0,10,49.584l8.078-5.831H28.75c2.758,0,5-2.8,5-6.251H35c1.383,0,2.5-1.4,2.5-3.125V28.127h.625A2.144,2.144,0,0,0,40,25.783V21.095A2.144,2.144,0,0,0,38.125,18.751ZM49.664,15.1,43.414,1.562A2.251,2.251,0,0,0,40,.419L31.922,6.25H23.938a4.324,4.324,0,0,0-2.648.947L18.672,9.238A3.343,3.343,0,0,0,17.5,11.885V24.22c0,2.158,1.4,3.907,3.125,3.907s3.125-1.748,3.125-3.907V15.626H38.125c2.414,0,4.375,2.451,4.375,5.469v2.783l6.25-4.512a3.586,3.586,0,0,0,.914-4.268Z" transform="translate(0.002 -0.001)" fill="#01012e"/>
</svg>
