<svg xmlns="http://www.w3.org/2000/svg" width="36" height="35.88" viewBox="0 0 36 35.88">
  <path id="Icon_simple-fitbit" data-name="Icon simple-fitbit" d="M19.947,2.737a2.677,2.677,0,1,1-5.355,0,2.678,2.678,0,0,1,5.355,0ZM17.268,7.6a2.807,2.807,0,1,1-.012,0Zm0,7.543a2.918,2.918,0,1,0,2.922,2.917,2.959,2.959,0,0,0-2.922-2.917Zm0,7.66a2.8,2.8,0,1,0,2.8,2.8,2.846,2.846,0,0,0-2.812-2.8Zm0,7.786a2.674,2.674,0,1,0,2.679,2.672,2.7,2.7,0,0,0-2.679-2.672ZM24.69,7.234A3.224,3.224,0,0,0,21.528,10.4a3.161,3.161,0,0,0,6.321,0A3.22,3.22,0,0,0,24.69,7.238v0Zm0,7.545a3.283,3.283,0,1,0,3.284,3.282A3.272,3.272,0,0,0,24.69,14.78Zm0,7.662a3.162,3.162,0,1,0,3.159,3.16A3.222,3.222,0,0,0,24.69,22.441Zm7.659-8.03a3.65,3.65,0,0,0,0,7.3A3.6,3.6,0,0,0,36,18.046,3.735,3.735,0,0,0,32.349,14.4ZM9.729,7.968A2.432,2.432,0,1,0,12.158,10.4,2.438,2.438,0,0,0,9.729,7.968Zm0,7.541a2.555,2.555,0,0,0-.012,5.109,2.555,2.555,0,0,0-.023-5.109h.035Zm0,7.661a2.421,2.421,0,1,0,0-.018ZM2.192,15.875a2.188,2.188,0,1,0,2.187,2.188,2.178,2.178,0,0,0-2.187-2.188Z" transform="translate(0 -0.06)"/>
</svg>
