<svg xmlns="http://www.w3.org/2000/svg" width="83.027" height="84.38" viewBox="0 0 83.027 84.38">
    <path id="Icon_map-gym" data-name="Icon map-gym" d="M29.851,78.519a2.447,2.447,0,0,1,0,3l-4,4c-.712.672-1.337-.277-2-1l-22-24a2.447,2.447,0,0,1,0-3l4-3c.712-.673,1.338-.724,2,0Zm29-46a2.447,2.447,0,0,1,0,3l-24,23a2.412,2.412,0,0,1-3,0l-6-7c-.66-.728-.71-1.323,0-2l25-23c.342-.323.533-.017,1,0s.682-.347,1,0Zm-20,39c.66.722-.291,1.326-1,2l-3,4a2.41,2.41,0,0,1-3,0l-22-25c-.66-.727-.709-1.322,0-2l4-4c.712-.672,1.337-.723,2,0Zm37-38a2.447,2.447,0,0,1,0,3l-4,3a2.412,2.412,0,0,1-3,0l-22-24a2.444,2.444,0,0,1,0-3l4-3c.342-.323.533-1.017,1-1s.682.653,1,1Zm8-7c.659.729.709,1.322,0,2l-4,4c-.341.323-.533.017-1,0s-.682.347-1,0l-23-25c-.66-.728-.709-1.321,0-2l4-4c.341-.324.534-.017,1,0s1.683-.347,2,0Z" transform="translate(-1.337 -1.369)" fill="#274e8b" />
</svg>
  