<svg xmlns="http://www.w3.org/2000/svg" width="110" height="110" viewBox="0 0 110 110">
    <circle id="Elipse_685" data-name="Elipse 685" cx="55" cy="55" r="55" fill="#311414"/>
    <path id="Icon_awesome-user-friends" data-name="Icon awesome-user-friends" d="M17.438,26.478c5.61,0,10.114-5.641,10.114-12.25S23.048,2.562,17.438,2.562,7.324,7.619,7.324,14.228,11.828,26.478,17.438,26.478Zm6.953,3.5h-.632a12.585,12.585,0,0,1-6.321,1.167,12.6,12.6,0,0,1-6.321-1.167h-.632C4.721,29.978.371,35.437.371,42.228v2.917c0,2.829,2.023,5.25,4.425,5.25H30.712c2.4,0,4.425-2.421,4.425-5.25V42.228C35.137,35.437,30.155,29.978,24.391,29.978Zm18.963-3.5c4.8,0,8.849-4.841,8.849-10.5s-4.046-9.917-8.849-9.917-8.217,4.258-8.217,9.917S38.551,26.478,43.354,26.478Zm4.425,3.5h0a12.666,12.666,0,0,1-4.425.583,9.359,9.359,0,0,1-3.793-.583h0A8.605,8.605,0,0,0,34.5,31.145c2.211,2.808,3.161,6.962,3.161,11.083v4.083c0,.235.009.359,0,.583H54.1c2.4,0,3.793-2.421,3.793-5.25C57.893,35.035,53.389,29.978,47.779,29.978Z" transform="translate(25.869 28.522)" fill="#954040"/>
  </svg>
  