<svg xmlns="http://www.w3.org/2000/svg" width="91" height="82" viewBox="0 0 91 82">
    <path id="Icon_awesome-user-friends" data-name="Icon awesome-user-friends" d="M27.371,43.562c8.875,0,16-9.67,16-21s-7.125-20-16-20-16,8.67-16,20S18.5,43.562,27.371,43.562Zm11,6h-1c-2.982,1.83-6.473,2-10,2s-7-.17-10-2h-1c-9.119,0-16,9.359-16,21v5c0,4.85,3.2,9,7,9h41c3.8,0,7-4.15,7-9v-5C55.371,58.92,47.49,49.562,38.371,49.562Zm30-6c7.6,0,14-8.3,14-18s-6.4-17-14-17-13,7.3-13,17S60.772,43.562,68.371,43.562Zm7,6h0a18.6,18.6,0,0,1-7,1,13.771,13.771,0,0,1-6-1h0c-2.925,0-5.634.261-8,2,3.5,4.814,5,11.935,5,19v7c0,.4.014.616,0,1h26c3.8,0,6-4.15,6-9C91.371,58.232,84.246,49.562,75.371,49.562Z" transform="translate(-0.371 -2.562)" fill="#954040" />
</svg>
  