<svg xmlns="http://www.w3.org/2000/svg" width="110" height="110" viewBox="0 0 110 110">
    <circle id="Elipse_686" data-name="Elipse 686" cx="55" cy="55" r="55" fill="#220726" />
    <path id="Icon_awesome-share-alt" data-name="Icon awesome-share-alt" d="M38.905,37.349a11.2,11.2,0,0,0-6.855,2.73L21.083,32.572a11.542,11.542,0,0,0,0-4.778l10.968-7.508a10.618,10.618,0,0,0,6.855,2.048c5.821,0,10.282-4.745,10.282-10.92S44.726.493,38.905.493a11,11,0,0,0-10.968,10.92c0,.834.522,1.266.685,2.048L16.97,20.969A8.793,8.793,0,0,0,10.8,18.921,11,11,0,0,0-.167,29.842c0,6.175,5.147,11.6,10.968,11.6,2.482,0,4.368-1.207,6.169-2.73l11.653,7.508c-.166.8-.686,1.231-.685,2.048,0,6.175,5.147,11.6,10.968,11.6s10.282-5.428,10.282-11.6S44.726,37.349,38.905,37.349Z" transform="translate(30.49 24.817)" fill="#6f167b" />
</svg>
  