<?xml version="1.0" encoding="utf-8"?>
<!-- Generator: Adobe Illustrator 24.3.0, SVG Export Plug-In . SVG Version: 6.00 Build 0)  -->
<svg version="1.1" id="Capa_1" xmlns="http://www.w3.org/2000/svg" xmlns:xlink="http://www.w3.org/1999/xlink" x="0px" y="0px"
	 viewBox="0 0 512 512" style="enable-background:new 0 0 512 512;" xml:space="preserve">
<style type="text/css">
	.st0{fill:#011657;}
</style>
<g>
	<path class="st0" d="M512,63.9L448.1,0l-42.7,42.7c-0.1-0.1,1.1,1.1-42.7-42.7C347.8,14.9,335,27.7,320,42.7
		c5.5,5.5,147.8,147.8,149.3,149.3c15-15,27.7-27.7,42.7-42.7l-42.7-42.7L512,63.9z"/>
	<path class="st0" d="M277.5,170.6L170.6,277.5l63.9,63.9l106.9-106.9C322.9,215.9,296.7,189.8,277.5,170.6L277.5,170.6z"/>
	<path class="st0" d="M277.4,42.6l-42.7,42.7c227,227-31.8-31.8,192,192l42.7-42.7C458.8,224,288.3,53.5,277.4,42.6L277.4,42.6z"/>
	<path class="st0" d="M85.3,234.7l-42.7,42.7c31.4,31.4,171.1,171.1,192,192l42.7-42.7C249.7,399.2,155.4,304.9,85.3,234.7
		L85.3,234.7z"/>
	<path class="st0" d="M42.7,320C27.6,335.1,14.8,347.9,0,362.7c49.2,49.2,42.1,42,42.7,42.7L0,448.1L63.9,512
		c43.9-43.9,42.6-42.8,42.7-42.7l42.7,42.7c5.2-5.2,37.5-37.5,42.7-42.7C184.2,461.6,49.2,326.5,42.7,320L42.7,320z"/>
</g>
</svg>
